<?xml version="1.0" standalone="no"?>
<!DOCTYPE svg PUBLIC "-//W3C//DTD SVG 20010904//EN"
 "http://www.w3.org/TR/2001/REC-SVG-20010904/DTD/svg10.dtd">
<svg version="1.0" xmlns="http://www.w3.org/2000/svg"
 width="496.000000pt" height="496.000000pt" viewBox="0 0 496.000000 496.000000"
 preserveAspectRatio="xMidYMid meet">
<metadata>
Created by potrace 1.14, written by Peter Selinger 2001-2017
</metadata>
<g transform="translate(0.000000,496.000000) scale(0.100000,-0.100000)"
fill="#000000" stroke="none">
<path d="M0 2480 l0 -2480 2480 0 2480 0 0 2480 0 2480 -2480 0 -2480 0 0
-2480z m2687 935 c111 -220 202 -406 202 -413 1 -24 -119 -139 -178 -171 -195
-103 -428 -72 -586 80 -36 34 -67 70 -70 80 -4 11 65 165 181 411 103 216 192
399 197 406 6 7 20 12 31 10 17 -2 62 -85 223 -403z m-692 -566 c201 -192 207
-503 14 -704 -34 -36 -70 -67 -79 -70 -21 -7 -809 365 -824 388 -5 8 -6 22 -3
30 6 16 789 415 815 416 8 1 42 -26 77 -60z m1460 -141 c344 -172 405 -206
405 -224 0 -12 -6 -26 -12 -31 -7 -6 -190 -95 -405 -197 -257 -123 -399 -185
-412 -181 -30 9 -137 127 -165 183 -100 197 -64 424 93 584 37 38 72 68 79 68
6 0 194 -91 417 -202z m-883 -569 c29 -6 81 -24 115 -41 62 -29 173 -121 195
-161 9 -18 -19 -80 -193 -429 -173 -346 -207 -408 -225 -408 -12 0 -26 6 -31
13 -6 6 -95 189 -197 404 -123 257 -185 399 -181 412 9 31 127 137 183 165
100 51 225 68 334 45z"/>
</g>
</svg>
